<svg xmlns="http://www.w3.org/2000/svg" viewBox="0 0 1024 1024" role="img" aria-label="TepuApp">
  <defs>
    <linearGradient id="bg" x1="0" y1="0" x2="1" y2="1">
      <stop offset="0%" stop-color="#7c3aed" />
      <stop offset="100%" stop-color="#ec4899" />
    </linearGradient>
    <radialGradient id="glow" cx="50%" cy="35%" r="60%">
      <stop offset="0%" stop-color="#ffffff" stop-opacity="0.45" />
      <stop offset="100%" stop-color="#ffffff" stop-opacity="0" />
    </radialGradient>
  </defs>
  <rect width="1024" height="1024" rx="220" fill="url(#bg)" />
  <rect width="1024" height="1024" rx="220" fill="url(#glow)" />
  <text x="512" y="230" text-anchor="middle" font-family="'Lexend', 'Poppins', 'Inter', Arial, sans-serif" font-size="140" font-weight="700" fill="#f8fafc" letter-spacing="8">TEPU</text>
  <circle cx="512" cy="596" r="300" fill="#0f172a" opacity="0.9" />
  <rect x="402" y="400" width="220" height="140" rx="18" fill="#e2e8f0" />
  <rect x="422" y="418" width="180" height="70" rx="12" fill="#cbd5f5" />
  <rect x="422" y="496" width="180" height="28" rx="10" fill="#bcd0ea" />
  <rect x="372" y="530" width="280" height="240" rx="18" fill="#f8fafc" />
  <rect x="392" y="548" width="240" height="70" rx="12" fill="#e5eef9" />
  <rect x="392" y="628" width="240" height="70" rx="12" fill="#e5eef9" />
  <rect x="392" y="708" width="240" height="50" rx="12" fill="#e5eef9" />
  <rect x="366" y="764" width="292" height="24" rx="12" fill="#f8fafc" />
  <rect x="346" y="788" width="332" height="32" rx="16" fill="#f8fafc" />
  <rect x="326" y="820" width="372" height="38" rx="19" fill="#f8fafc" />
  <rect x="352" y="850" width="320" height="16" rx="8" fill="#cbd5f5" />
</svg>
